<?xml version="1.0" encoding="UTF-8"?>
<svg width="800px" height="800px" viewBox="0 0 47.5 47.5" version="1.1" xmlns="http://www.w3.org/2000/svg">
    <defs>
        <clipPath id="clipPath16">
            <path d="M 0,38 38,38 38,0 0,0 0,38 Z" />
        </clipPath>
    </defs>
    <g transform="matrix(1.25,0,0,-1.25,0,47.5)">
        <g clip-path="url(#clipPath16)">
            <g transform="translate(34.875,1.7725)">
                <path d="M 0,0 C -0.314,0 -0.628,0.12 -0.868,0.359 L -31.509,31 c -0.48,0.48 -0.48,1.257 0,1.737 0.479,0.479 1.257,0.479 1.736,0 L 0.868,2.096 c 0.48,-0.48 0.48,-1.257 0,-1.737 C 0.628,0.12 0.314,0 0,0" fill="#d99e82" />
            </g>

            <g transform="translate(16.2544,28.3726)">
                <circle cx="-6.752" cy="0" r="6.752" fill="#fcb1e3" stroke="#4A3728" stroke-width="0.8" />
                <circle cx="-9" cy="3" r="1.5" fill="white" fill-opacity="0.4" />
            </g>

            <g transform="translate(23.6211,21.0063)">
                <circle cx="-6.752" cy="0" r="6.752" fill="#ffd983" stroke="#4A3728" stroke-width="0.8" />
                <circle cx="-9" cy="3" r="1.5" fill="white" fill-opacity="0.4" />
            </g>

            <g transform="translate(30.9873,13.6406)">
                <circle cx="-6.753" cy="0" r="6.753" fill="#a6d388" stroke="#4A3728" stroke-width="0.8" />
                <circle cx="-9" cy="3" r="1.5" fill="white" fill-opacity="0.4" />
            </g>
        </g>
    </g>
</svg>